<svg width="110" height="29" viewBox="0 0 110 29" fill="none" xmlns="http://www.w3.org/2000/svg">
<path d="M24.7045 17.3134C26.1649 17.3134 27.3488 16.1382 27.3488 14.6885C27.3488 13.2388 26.1649 12.0636 24.7045 12.0636C23.2441 12.0636 22.0602 13.2388 22.0602 14.6885C22.0602 16.1382 23.2441 17.3134 24.7045 17.3134Z" fill="#112530"/>
<path d="M18.7704 17.024C20.0699 17.024 21.1233 15.9784 21.1233 14.6885C21.1233 13.3986 20.0699 12.353 18.7704 12.353C17.471 12.353 16.4176 13.3986 16.4176 14.6885C16.4176 15.9784 17.471 17.024 18.7704 17.024Z" fill="#112530"/>
<path d="M18.7704 11.1025C20.0699 11.1025 21.1233 10.0569 21.1233 8.76702C21.1233 7.47715 20.0699 6.43151 18.7704 6.43151C17.471 6.43151 16.4176 7.47715 16.4176 8.76702C16.4176 10.0569 17.471 11.1025 18.7704 11.1025Z" fill="#112530"/>
<path d="M18.7704 22.9248C20.0699 22.9248 21.1233 21.8792 21.1233 20.5893C21.1233 19.2994 20.0699 18.2538 18.7704 18.2538C17.471 18.2538 16.4176 19.2994 16.4176 20.5893C16.4176 21.8792 17.471 22.9248 18.7704 22.9248Z" fill="#112530"/>
<path d="M12.8259 16.7346C13.9644 16.7346 14.8873 15.8186 14.8873 14.6885C14.8873 13.5584 13.9644 12.6423 12.8259 12.6423C11.6875 12.6423 10.7646 13.5584 10.7646 14.6885C10.7646 15.8186 11.6875 16.7346 12.8259 16.7346Z" fill="#112530"/>
<path d="M12.8259 10.8132C13.9644 10.8132 14.8873 9.89709 14.8873 8.76702C14.8873 7.63696 13.9644 6.72086 12.8259 6.72086C11.6875 6.72086 10.7646 7.63696 10.7646 8.76702C10.7646 9.89709 11.6875 10.8132 12.8259 10.8132Z" fill="#112530"/>
<path d="M12.8259 22.6561C13.9644 22.6561 14.8873 21.74 14.8873 20.61C14.8873 19.4799 13.9644 18.5638 12.8259 18.5638C11.6875 18.5638 10.7646 19.4799 10.7646 20.61C10.7646 21.74 11.6875 22.6561 12.8259 22.6561Z" fill="#112530"/>
<path d="M12.8259 28.5879C13.9644 28.5879 14.8873 27.6718 14.8873 26.5418C14.8873 25.4117 13.9644 24.4956 12.8259 24.4956C11.6875 24.4956 10.7646 25.4117 10.7646 26.5418C10.7646 27.6718 11.6875 28.5879 12.8259 28.5879Z" fill="#112530"/>
<path d="M12.8259 4.88138C13.9644 4.88138 14.8873 3.96529 14.8873 2.83522C14.8873 1.70516 13.9644 0.789062 12.8259 0.789062C11.6875 0.789062 10.7646 1.70516 10.7646 2.83522C10.7646 3.96529 11.6875 4.88138 12.8259 4.88138Z" fill="#112530"/>
<path d="M6.88145 16.4453C7.8589 16.4453 8.65127 15.6587 8.65127 14.6885C8.65127 13.7182 7.8589 12.9317 6.88145 12.9317C5.90401 12.9317 5.11164 13.7182 5.11164 14.6885C5.11164 15.6587 5.90401 16.4453 6.88145 16.4453Z" fill="#112530"/>
<path d="M6.88145 22.3461C7.8589 22.3461 8.65127 21.5595 8.65127 20.5893C8.65127 19.619 7.8589 18.8325 6.88145 18.8325C5.90401 18.8325 5.11164 19.619 5.11164 20.5893C5.11164 21.5595 5.90401 22.3461 6.88145 22.3461Z" fill="#112530"/>
<path d="M6.88145 10.5445C7.8589 10.5445 8.65127 9.75795 8.65127 8.78769C8.65127 7.81743 7.8589 7.03089 6.88145 7.03089C5.90401 7.03089 5.11164 7.81743 5.11164 8.78769C5.11164 9.75795 5.90401 10.5445 6.88145 10.5445Z" fill="#112530"/>
<path d="M1.4679 16.1456C2.27861 16.1456 2.93581 15.4932 2.93581 14.6885C2.93581 13.8837 2.27861 13.2314 1.4679 13.2314C0.657203 13.2314 0 13.8837 0 14.6885C0 15.4932 0.657203 16.1456 1.4679 16.1456Z" fill="#112530"/>
<g clip-path="url(#clip0)">
<path d="M50.7651 6.85858C51.8574 6.85858 52.743 5.97699 52.743 4.88949C52.743 3.802 51.8574 2.92041 50.7651 2.92041C49.6728 2.92041 48.7872 3.802 48.7872 4.88949C48.7872 5.97699 49.6728 6.85858 50.7651 6.85858Z" fill="black"/>
<path d="M92.6028 6.85858C93.6951 6.85858 94.5806 5.97699 94.5806 4.88949C94.5806 3.802 93.6951 2.92041 92.6028 2.92041C91.5104 2.92041 90.6249 3.802 90.6249 4.88949C90.6249 5.97699 91.5104 6.85858 92.6028 6.85858Z" fill="black"/>
<path d="M52.3474 9.85853H49.1944V27.3243H52.3474V9.85853Z" fill="black"/>
<path d="M94.185 9.85853H91.0321V27.3243H94.185V9.85853Z" fill="black"/>
<path d="M108.181 12.9858V9.85839H103.528V3.05926H100.398V9.85839H97.8732V12.9858H100.398V22.3795C100.401 23.7138 100.936 24.9924 101.884 25.9348C102.833 26.8772 104.119 27.3243 105.459 27.3243H108.181V24.279H105.703C105.412 24.2876 105.123 24.2358 104.853 24.1267C104.583 24.0176 104.339 23.8538 104.137 23.6456C103.934 23.4374 103.778 23.1895 103.677 22.9176C103.576 22.6458 103.533 22.356 103.551 22.0667V12.9858H108.181Z" fill="black"/>
<path d="M66.6694 12.9858V9.85839H62.0156V3.05926H58.8511V9.85839H56.3497V12.9858H58.8511V22.3795C58.8541 23.7117 59.3871 24.9886 60.3334 25.9307C61.2797 26.8727 62.5622 27.3213 63.9004 27.3243H66.6345V24.279H64.1913C63.9003 24.2876 63.6107 24.2358 63.341 24.1267C63.0713 24.0176 62.8274 23.8538 62.6249 23.6456C62.4223 23.4374 62.2656 23.1895 62.1647 22.9176C62.0639 22.6458 62.021 22.356 62.0389 22.0667V12.9858H66.6694Z" fill="black"/>
<path d="M37.048 6.23311V9.85855H34.5117V12.9859H37.048V27.3243H40.2359V12.9859H45.2969V9.85855H40.2359V6.23311C40.2169 5.93858 40.2583 5.64328 40.3575 5.36516C40.4567 5.08704 40.6117 4.8319 40.813 4.61524C41.0143 4.39858 41.2578 4.22492 41.5285 4.10481C41.7993 3.9847 42.0918 3.92065 42.3883 3.91654H45.2969V0.789173H42.5628C41.8412 0.784596 41.1258 0.921945 40.4577 1.19334C39.7896 1.46473 39.1819 1.86482 38.6695 2.37064C38.1571 2.87646 37.7501 3.47805 37.4718 4.14088C37.1936 4.80371 37.0495 5.51473 37.048 6.23311Z" fill="black"/>
<path d="M79.5604 9.55735C78.4061 9.52877 77.2606 9.76578 76.2133 10.2499C75.166 10.7341 74.245 11.4524 73.5221 12.3488V0.789062H70.2994V27.3243H73.5221V24.9046C74.2427 25.8045 75.1629 26.526 76.2105 27.0123C77.2582 27.4987 78.4048 27.7367 79.5604 27.7077C84.54 27.7077 88.1932 23.8158 88.1932 18.6267C88.1932 13.4492 84.54 9.55735 79.5604 9.55735ZM79.2579 24.4992C78.0841 24.5361 76.9258 24.2233 75.9316 23.6009C74.9374 22.9784 74.1525 22.0747 73.6774 21.0054C73.2022 19.9361 73.0585 18.75 73.2647 17.5989C73.4708 16.4478 74.0174 15.3842 74.8345 14.5443C75.6515 13.7043 76.7018 13.1263 77.8508 12.8843C78.9998 12.6423 80.1953 12.7473 81.284 13.1858C82.3727 13.6243 83.3052 14.3764 83.9619 15.3457C84.6187 16.315 84.9699 17.4575 84.9705 18.6267C84.9922 20.1588 84.4033 21.637 83.3326 22.7377C82.2619 23.8384 80.7967 24.4718 79.2579 24.4992Z" fill="black"/>
</g>
<defs>
<clipPath id="clip0">
<rect width="74.8837" height="27.7989" fill="white" transform="translate(34.5117 0.789062)"/>
</clipPath>
</defs>
</svg>
